<svg width="375" height="28" viewBox="0 0 375 28" fill="none" xmlns="http://www.w3.org/2000/svg">
<path d="M-904 14C-867.633 -3.33333 -831.267 -3.33333 -794.9 14C-758.533 31.3333 -722.167 31.3333 -685.8 14C-649.433 -3.33333 -613.067 -3.33333 -576.7 14C-540.333 31.3333 -503.967 31.3333 -467.6 14C-431.233 -3.33333 -394.867 -3.33333 -358.5 14C-322.133 31.3333 -285.767 31.3333 -249.4 14C-213.033 -3.33333 -176.667 -3.33333 -140.3 14C-103.933 31.3333 -67.5667 31.3333 -31.2 14C5.16663 -3.33333 41.5333 -3.33333 77.9 14C114.267 31.3333 150.633 31.3333 187 14C223.367 -3.33333 259.733 -3.33333 296.1 14C332.467 31.3333 368.833 31.3333 405.2 14C441.567 -3.33333 477.933 -3.33333 514.3 14C550.667 31.3333 587.033 31.3333 623.4 14C659.767 -3.33333 696.133 -3.33333 732.5 14C768.867 31.3333 805.233 31.3333 841.6 14C877.967 -3.33333 914.333 -3.33333 950.7 14C987.067 31.3333 1023.43 31.3333 1059.8 14C1096.17 -3.33333 1132.53 -3.33333 1168.9 14C1205.27 31.3333 1241.63 31.3333 1278 14" stroke="#F5F9FF" stroke-width="2"/>
</svg>
